Coordinates
version=1
nRows=38
nColumns=12
inDegrees=yes

Units are S.I. units (second, meters, Newtons, ...)
Angles are in degrees

endheader
time	SC_y	SC_z	SC_x	AC_y	AC_z	AC_x	GH_y	GH_z	GH_yy	EL_x	PS_y
       0.0              -11.24          6.092          45.77          45.07          -9.98          3.304         -71.02         -14.36           64.7           83.7          65.67
  0.004636              -11.24          6.091          45.76          45.06         -9.979          3.303          -71.0         -14.36          64.67          83.69          65.68
  0.009271              -11.24           6.09          45.76          45.06         -9.979          3.302         -70.98         -14.35          64.64          83.68          65.68
   0.01391              -11.25          6.088          45.76          45.06         -9.978            3.3         -70.96         -14.34          64.61          83.67          65.69
   0.01854              -11.25          6.087          45.75          45.06         -9.978          3.299         -70.94         -14.33          64.57          83.66           65.7
   0.02318              -11.26          6.085          45.75          45.06         -9.977          3.298         -70.91         -14.32          64.54          83.65          65.71
   0.02781              -11.26          6.083          45.74          45.05         -9.976          3.296         -70.89         -14.31           64.5          83.64          65.71
   0.03245              -11.27          6.082          45.74          45.05         -9.976          3.294         -70.86          -14.3          64.46          83.62          65.72
   0.03709              -11.28           6.08          45.73          45.05         -9.975          3.293         -70.83         -14.28          64.42          83.61          65.73
   0.04172              -11.28          6.078          45.73          45.04         -9.974          3.291          -70.8         -14.27          64.37           83.6          65.74
   0.04636              -11.29          6.075          45.72          45.04         -9.973          3.289         -70.77         -14.26          64.32          83.58          65.75
   0.05099               -11.3          6.073          45.71          45.04         -9.972          3.286         -70.73         -14.24          64.27          83.56          65.77
   0.05563              -11.31           6.07          45.71          45.03         -9.971          3.284         -70.69         -14.22          64.21          83.55          65.78
   0.06026              -11.32          6.068           45.7          45.03          -9.97          3.281         -70.65         -14.21          64.14          83.53          65.79
    0.0649              -11.33          6.065          45.69          45.02         -9.969          3.279         -70.61         -14.19          64.08           83.5          65.81
   0.06954              -11.34          6.061          45.68          45.02         -9.968          3.276         -70.56         -14.17           64.0          83.48          65.82
   0.07417              -11.35          6.058          45.67          45.01         -9.967          3.272         -70.51         -14.14          63.92          83.46          65.84
   0.07881              -11.36          6.054          45.66          45.01         -9.965          3.269         -70.45         -14.12          63.84          83.43          65.86
   0.08344              -11.37          6.049          45.65           45.0         -9.964          3.265         -70.38         -14.09          63.74           83.4          65.88
   0.08808              -11.39          6.045          45.63          44.99         -9.962          3.261         -70.32         -14.06          63.64          83.37          65.91
   0.09271              -11.41           6.04          45.62          44.98          -9.96          3.256         -70.24         -14.03          63.52          83.33          65.93
   0.09735              -11.42          6.034           45.6          44.98         -9.958          3.251         -70.16         -13.99          63.39          83.29          65.96
     0.102              -11.44          6.028          45.59          44.97         -9.955          3.245         -70.06         -13.95          63.26          83.25          65.99
    0.1066              -11.47          6.021          45.57          44.96         -9.953          3.239         -69.96         -13.91           63.1           83.2          66.02
    0.1113              -11.49          6.013          45.55          44.94          -9.95          3.232         -69.85         -13.86          62.93          83.15          66.06
    0.1159              -11.52          6.005          45.52          44.93         -9.947          3.224         -69.72         -13.81          62.74          83.09           66.1
    0.1205              -11.55          5.995          45.49          44.91         -9.943          3.215         -69.58         -13.74          62.52          83.02          66.15
    0.1252              -11.58          5.984          45.46           44.9         -9.939          3.205         -69.42         -13.68          62.28          82.95           66.2
    0.1298              -11.62          5.972          45.43          44.88         -9.934          3.194         -69.24          -13.6          62.01          82.86          66.26
    0.1344              -11.67          5.958          45.39          44.86         -9.929          3.182         -69.03         -13.51           61.7          82.77          66.33
    0.1391              -11.72          5.942          45.35          44.83         -9.923          3.167          -68.8         -13.41          61.35          82.66          66.41
    0.1437              -11.78          5.924           45.3           44.8         -9.916          3.151         -68.53         -13.29          60.94          82.53           66.5
    0.1483              -11.85          5.903          45.24          44.77         -9.908          3.132         -68.22         -13.16          60.47          82.39           66.6
     0.153              -11.92          5.879          45.17          44.73         -9.899          3.109         -67.86         -13.01          59.93          82.22          66.72
    0.1576              -12.02           5.85          45.09          44.69         -9.888          3.083         -67.43         -12.82          59.29          82.02          66.86
    0.1622              -12.12          5.817           45.0          44.64         -9.876          3.053         -66.94         -12.61          58.54          81.79          67.03
    0.1669              -12.25          5.777          44.88          44.57         -9.861          3.016         -66.35         -12.36          57.65          81.51          67.23
    0.1715              -12.41          5.729          44.75           44.5         -9.843          2.973         -65.64         -12.05          56.58          81.18          67.46
